<?xml version="1.0" encoding="iso-8859-1"?>
<!-- Generator: Adobe Illustrator 16.0.0, SVG Export Plug-In . SVG Version: 6.00 Build 0)  -->
<!DOCTYPE svg PUBLIC "-//W3C//DTD SVG 1.1//EN" "http://www.w3.org/Graphics/SVG/1.1/DTD/svg11.dtd">
<svg version="1.1" id="Capa_1" xmlns="http://www.w3.org/2000/svg" xmlns:xlink="http://www.w3.org/1999/xlink" x="0px" y="0px"
	 width="612px" height="612px" viewBox="0 0 612 612" style="enable-background:new 0 0 612 612;" xml:space="preserve">
<g>
	<g id="grid">
		<g>
			<path d="M210.375,344.25h-153C25.685,344.25,0,369.935,0,401.625v153C0,586.315,25.685,612,57.375,612h153
				c31.69,0,57.375-25.685,57.375-57.375v-153C267.75,369.935,242.065,344.25,210.375,344.25z M210.375,535.5
				c0,10.557-8.568,19.125-19.125,19.125H76.5c-10.557,0-19.125-8.568-19.125-19.125V420.75c0-10.557,8.568-19.125,19.125-19.125
				h114.75c10.557,0,19.125,8.568,19.125,19.125V535.5z M210.375,0h-153C25.685,0,0,25.685,0,57.375v153
				c0,31.69,25.685,57.375,57.375,57.375h153c31.69,0,57.375-25.685,57.375-57.375v-153C267.75,25.685,242.065,0,210.375,0z
				 M210.375,191.25c0,10.557-8.568,19.125-19.125,19.125H76.5c-10.557,0-19.125-8.568-19.125-19.125V76.5
				c0-10.557,8.568-19.125,19.125-19.125h114.75c10.557,0,19.125,8.568,19.125,19.125V191.25z M554.625,0h-153
				c-31.69,0-57.375,25.685-57.375,57.375v153c0,31.69,25.685,57.375,57.375,57.375h153c31.69,0,57.375-25.685,57.375-57.375v-153
				C612,25.685,586.315,0,554.625,0z M554.625,191.25c0,10.557-8.568,19.125-19.125,19.125H420.75
				c-10.557,0-19.125-8.568-19.125-19.125V76.5c0-10.557,8.568-19.125,19.125-19.125H535.5c10.557,0,19.125,8.568,19.125,19.125
				V191.25z M554.625,344.25h-153c-31.69,0-57.375,25.685-57.375,57.375v153c0,31.69,25.685,57.375,57.375,57.375h153
				c31.69,0,57.375-25.685,57.375-57.375v-153C612,369.935,586.315,344.25,554.625,344.25z M554.625,535.5
				c0,10.557-8.568,19.125-19.125,19.125H420.75c-10.557,0-19.125-8.568-19.125-19.125V420.75c0-10.557,8.568-19.125,19.125-19.125
				H535.5c10.557,0,19.125,8.568,19.125,19.125V535.5z"/>
		</g>
	</g>
</g>
<g>
</g>
<g>
</g>
<g>
</g>
<g>
</g>
<g>
</g>
<g>
</g>
<g>
</g>
<g>
</g>
<g>
</g>
<g>
</g>
<g>
</g>
<g>
</g>
<g>
</g>
<g>
</g>
<g>
</g>
</svg>
