<svg xmlns="http://www.w3.org/2000/svg" width="20" height="20" viewBox="0 0 20 20"><g><g><path fill="#bfc5d2" d="M.3 12.1a.8.8 0 0 1 .8-.8h6.8a.8.8 0 0 1 .8.8v6.8a.8.8 0 0 1-.8.8H1.1a.8.8 0 0 1-.8-.8zm0-11a.8.8 0 0 1 .8-.8h6.8a.8.8 0 0 1 .8.8v6.8a.8.8 0 0 1-.8.8H1.1a.8.8 0 0 1-.8-.8zm11 0a.8.8 0 0 1 .8-.8h6.8a.8.8 0 0 1 .8.8v6.8a.8.8 0 0 1-.8.8h-6.8a.8.8 0 0 1-.8-.8zm0 11a.8.8 0 0 1 .8-.8h6.8a.8.8 0 0 1 .8.8v6.8a.8.8 0 0 1-.8.8h-6.8a.8.8 0 0 1-.8-.8zm1.45 6.15h5.5v-5.5h-5.5zm0-11h5.5v-5.5h-5.5zm-11 0h5.5v-5.5h-5.5zm0 11h5.5v-5.5h-5.5z"/></g></g></svg>